1103211_Jog01_kinetics.mot
version=1
nRows=12
nColumns=19
inDegrees=yes
endheader
time	ground_force_vx	ground_force_vy	ground_force_vz	ground_force_px	ground_force_py	ground_force_pz	1_ground_force_vx	1_ground_force_vy	1_ground_force_vz	1_ground_force_px	1_ground_force_py	1_ground_force_pz	ground_torque_x	ground_torque_y	ground_torque_z	1_ground_torque_x	1_ground_torque_y	1_ground_torque_z
      0.21400000	    -41.19719696	   1443.15393066	    -37.03858948	      0.67305684	     -0.00953000	      0.00279291	      0.00000000	      0.00000000	      0.00000000	      1.46698666	      0.00000000	      0.18849996	      0.00000000	      5.02690554	      0.00000000	      0.00000000	      0.00000000	      0.00000000
      0.21466666	    -39.19900131	   1442.59301758	    -37.10774612	      0.67352098	     -0.00953000	      0.00286210	      0.00000000	      0.00000000	      0.00000000	      1.46698666	      0.00000000	      0.18849996	      0.00000000	      4.97604084	      0.00000000	      0.00000000	      0.00000000	      0.00000000
      0.21533333	    -37.18969345	   1441.89440918	    -37.19479752	      0.67398530	     -0.00953000	      0.00293186	      0.00000000	      0.00000000	      0.00000000	      1.46698666	      0.00000000	      0.18849996	      0.00000000	      4.92237568	      0.00000000	      0.00000000	      0.00000000	      0.00000000
      0.21600001	    -35.17085266	   1441.05920410	    -37.29339218	      0.67444980	     -0.00953000	      0.00300182	      0.00000000	      0.00000000	      0.00000000	      1.46698666	      0.00000000	      0.18849996	      0.00000000	      4.86630726	      0.00000000	      0.00000000	      0.00000000	      0.00000000
      0.21666667	    -33.14466476	   1440.08923340	    -37.39692307	      0.67491442	     -0.00953000	      0.00307163	      0.00000000	      0.00000000	      0.00000000	      1.46698666	      0.00000000	      0.18849996	      0.00000000	      4.80824661	      0.00000000	      0.00000000	      0.00000000	      0.00000000
      0.21733333	    -31.11384010	   1438.98730469	    -37.49866867	      0.67537910	     -0.00953000	      0.00314089	      0.00000000	      0.00000000	      0.00000000	      1.46698666	      0.00000000	      0.18849996	      0.00000000	      4.74861240	      0.00000000	      0.00000000	      0.00000000	      0.00000000
      0.21799999	    -29.08149910	   1437.75708008	    -37.59193420	      0.67584378	     -0.00953000	      0.00320925	      0.00000000	      0.00000000	      0.00000000	      1.46698666	      0.00000000	      0.18849996	      0.00000000	      4.68782663	      0.00000000	      0.00000000	      0.00000000	      0.00000000
      0.21866667	    -27.05105782	   1436.40295410	    -37.67019272	      0.67630839	     -0.00953000	      0.00327634	      0.00000000	      0.00000000	      0.00000000	      1.46698666	      0.00000000	      0.18849996	      0.00000000	      4.62631035	      0.00000000	      0.00000000	      0.00000000	      0.00000000
      0.21933334	    -25.02609253	   1434.92968750	    -37.72721100	      0.67677301	     -0.00953000	      0.00334183	      0.00000000	      0.00000000	      0.00000000	      1.46698666	      0.00000000	      0.18849996	      0.00000000	      4.56447458	      0.00000000	      0.00000000	      0.00000000	      0.00000000
      0.22000000	    -23.01020241	   1433.34216309	    -37.75720215	      0.67723739	     -0.00953000	      0.00340541	      0.00000000	      0.00000000	      0.00000000	      1.46698666	      0.00000000	      0.18849996	      0.00000000	      4.50271988	      0.00000000	      0.00000000	      0.00000000	      0.00000000
      0.22066666	    -21.00688934	   1431.64575195	    -37.75490952	      0.67770165	     -0.00953000	      0.00346681	      0.00000000	      0.00000000	      0.00000000	      1.46698666	      0.00000000	      0.18849996	      0.00000000	      4.44142866	      0.00000000	      0.00000000	      0.00000000	      0.00000000
      0.22133334	    -19.01941109	   1429.84533691	    -37.71572113	      0.67816555	     -0.00953000	      0.00352579	      0.00000000	      0.00000000	      0.00000000	      1.46698666	      0.00000000	      0.18849996	      0.00000000	      4.38096142	      0.00000000	      0.00000000	      0.00000000	      0.00000000
